PathFileType	4	(X/Y/Z)	1H_nor_slow_right.trc
DataRate	CameraRate	NumFrames	NumMarkers	Units	OrigDataRate	OrigDataStartFrame	OrigNumFrames
250.00	250.00	14	18	mm	250.00	9552	25471
Frame#	Time	c7	r_should	l_should	clavicle	r_upa	r_elb_l	r_elb_m	r_low	r_wri_l	r_wri_m	r_met	l_upa	l_elb_l	l_elb_m	l_low	l_wri_l	l_wri_m	l_met
	X1	Y1	Z1	X2	Y2	Z2	X3	Y3	Z3	X4	Y4	Z4	X5	Y5	Z5	X6	Y6	Z6	X7	Y7	Z7	X8	Y8	Z8	X9	Y9	Z9	X10	Y10	Z10	X11	Y11	Z11	X12	Y12	Z12	X13	Y13	Z13	X14	Y14	Z14	X15	Y15	Z15	X16	Y16	Z16	X17	Y17	Z17	X18	Y18	Z18
9552	38.20400	1184.21606	1429.43481	163.49774	nan	nan	nan	1172.23999	1359.62988	-9.73080	1288.69775	1287.94299	139.39977	1308.80945	1170.13599	383.32990	1310.66235	1116.41150	404.17453	1237.27063	1060.50989	384.04605	1358.34131	1084.85962	312.85965	1387.74207	1081.83923	206.90181	1379.35522	1005.08008	218.85191	1452.22375	1060.18311	168.11893	1160.14539	1147.81812	-73.58088	1169.13538	1043.17224	-91.32418	1130.65808	1030.01831	-5.52311	1203.78235	932.73309	-78.45178	1257.43481	825.85944	-30.39975	1184.38953	805.23291	-55.10780	1259.30066	742.75519	-71.07160
9553	38.20800	1184.18628	1429.44336	163.49530	nan	nan	nan	1172.63489	1359.32861	-9.79623	1288.67029	1287.94910	139.42372	1308.79578	1170.19092	383.32666	1310.62866	1116.51270	404.18939	1237.25110	1060.55188	384.02316	1358.29285	1085.08728	312.86740	1387.65344	1082.23840	206.90485	1379.33496	1005.48993	218.75687	1452.15479	1060.68640	168.06015	1159.72742	1148.23462	-73.94701	1169.19397	1043.14905	-91.28671	1130.71875	1029.98218	-5.54275	1203.50195	933.10773	-78.70007	1257.13708	825.67303	-30.02069	1184.44641	805.22949	-55.07204	1259.38831	742.74744	-70.99974
9554	38.21200	1184.15063	1429.44751	163.49611	nan	nan	nan	1172.72229	1359.24817	-9.81157	1288.64282	1287.96008	139.45132	1308.78259	1170.24536	383.33197	1310.59485	1116.59790	404.21063	1237.22717	1060.58508	384.00003	1358.25452	1085.30310	312.87799	1387.54932	1082.62354	206.89070	1379.32202	1005.89575	218.67281	1452.08215	1061.19324	168.01204	1159.19495	1148.75659	-74.40977	1169.25317	1043.12012	-91.24833	1130.66028	1030.00500	-5.47039	1204.09314	932.49396	-78.20757	1257.12390	825.64716	-29.88759	1184.49658	805.22168	-55.03662	1259.47375	742.74237	-70.92901
9555	38.21600	1184.11829	1429.44861	163.50101	nan	nan	nan	1172.73560	1359.21338	-9.81098	1288.61292	1287.96667	139.47284	1308.75891	1170.29907	383.35202	1310.56018	1116.67566	404.23047	1237.20642	1060.61243	383.97717	1358.21411	1085.51501	312.88422	1387.43481	1083.01294	206.86456	1379.32068	1006.28351	218.59546	1452.00439	1061.69348	167.95715	1159.99268	1148.00171	-73.74543	1169.30334	1043.09998	-91.21582	1130.45923	1030.07532	-5.29202	1204.90283	931.62854	-77.53902	1257.19495	825.67511	-29.82011	1184.55847	805.22040	-54.99571	1259.56396	742.73523	-70.85593
9556	38.22000	1184.08765	1429.44641	163.50558	nan	nan	nan	1172.72583	1359.19067	-9.80281	1288.57874	1287.96570	139.49490	1308.72424	1170.33997	383.37576	1310.52454	1116.73743	404.24768	1237.18958	1060.63513	383.94739	1358.17871	1085.72424	312.89609	1387.33655	1083.40405	206.86023	1379.30994	1006.64911	218.51379	1451.91675	1062.16553	167.89073	1160.21362	1147.80017	-73.56715	1169.35535	1043.07629	-91.18947	1130.44043	1030.07605	-5.24417	1204.54663	932.09448	-77.85600	1257.28918	825.67987	-29.75714	1184.62805	805.21332	-54.94874	1259.65637	742.72821	-70.78232
9557	38.22400	1184.05579	1429.44104	163.50714	nan	nan	nan	1172.70911	1359.17188	-9.79846	1288.54578	1287.96313	139.52632	1308.68103	1170.36938	383.39917	1310.48865	1116.79675	404.27304	1237.16736	1060.65601	383.92618	1358.14282	1085.91943	312.89758	1387.23474	1083.78552	206.85866	1379.29285	1006.98279	218.42062	1451.82263	1062.63049	167.82855	1160.28845	1147.72913	-73.50790	1169.40576	1043.05261	-91.15797	1130.45898	1030.05908	-5.21663	1205.11755	931.50122	-77.39303	1257.38403	825.68262	-29.67699	1184.70129	805.19751	-54.89893	1259.75061	742.72198	-70.70847
9558	38.22800	1184.02197	1429.43860	163.51006	nan	nan	nan	1172.69128	1359.15039	-9.79430	1288.51147	1287.95850	139.55367	1308.63367	1170.39136	383.41748	1310.44958	1116.85803	404.30008	1237.14148	1060.67981	383.91223	1358.10791	1086.11511	312.89667	1387.13489	1084.15137	206.85417	1379.27429	1007.30743	218.32043	1451.73486	1063.10547	167.78568	1160.32178	1147.69543	-73.47865	1169.44958	1043.02649	-91.13242	1130.48047	1030.04126	-5.18266	1204.07068	932.73853	-78.28167	1257.48218	825.70337	-29.61947	1184.77917	805.18585	-54.85631	1259.84766	742.71124	-70.63979
9559	38.23200	1183.98523	1429.43579	163.51753	nan	nan	nan	1172.66980	1359.13428	-9.78298	1288.47168	1287.95911	139.58002	1308.57812	1170.41077	383.42807	1310.39453	1116.92444	404.31876	1237.11914	1060.70264	383.89438	1358.06494	1086.32202	312.89346	1387.02942	1084.52319	206.84807	1379.24585	1007.65729	218.21416	1451.64941	1063.60120	167.73737	1160.34387	1147.67419	-73.45438	1169.48450	1043.00623	-91.11150	1130.50549	1030.02722	-5.14576	1203.85608	933.03522	-78.47059	1257.58118	825.72137	-29.54387	1184.85803	805.17816	-54.80771	1259.94641	742.70734	-70.57237
9560	38.23600	1183.94519	1429.43164	163.52542	nan	nan	nan	1172.46069	1359.25732	-9.73725	1288.43469	1287.96143	139.60567	1308.51794	1170.43823	383.42474	1310.34485	1116.99463	404.33868	1237.09766	1060.72717	383.87003	1358.01843	1086.53394	312.88754	1386.92810	1084.90308	206.84689	1379.22583	1008.04877	218.12459	1451.56543	1064.09204	167.67537	1160.36499	1147.64929	-73.43379	1169.52515	1042.98975	-91.08508	1130.53992	1030.00842	-5.11893	1204.45776	932.40930	-77.97562	1257.67834	825.75079	-29.48914	1184.94104	805.17249	-54.75186	1260.04895	742.71008	-70.50816
9561	38.24000	1183.90417	1429.42920	163.52426	nan	nan	nan	1172.20581	1359.41321	-9.68580	1288.39697	1287.96338	139.63399	1308.46362	1170.47046	383.43326	1310.29797	1117.07312	404.33521	1237.07898	1060.74792	383.84488	1357.96704	1086.74744	312.87280	1386.81714	1085.30310	206.84917	1379.19836	1008.45477	218.02800	1451.48071	1064.56628	167.60815	1160.37976	1147.62878	-73.41534	1169.56152	1042.97180	-91.05026	1130.57349	1029.98853	-5.09139	1205.26489	931.55328	-77.30104	1257.78333	825.77374	-29.41667	1185.02002	805.16693	-54.69834	1260.15857	742.71179	-70.44223
9562	38.24400	1183.86584	1429.43018	163.52458	nan	nan	nan	1172.50061	1359.17212	-9.72976	1288.36316	1287.97314	139.66423	1308.41260	1170.50720	383.44818	1310.25122	1117.15247	404.31583	1237.06506	1060.76453	383.81277	1357.91418	1086.97205	312.85406	1386.71008	1085.69141	206.84891	1379.18616	1008.83887	217.94283	1451.39526	1065.04053	167.54137	1160.39807	1147.60645	-73.39511	1169.60046	1042.95068	-91.02226	1130.60095	1029.97046	-5.06522	1204.29749	932.70728	-78.12125	1257.87854	825.79669	-29.37284	1185.09631	805.16058	-54.64627	1260.27026	742.71881	-70.37954
9563	38.24800	1183.82959	1429.43188	163.52951	nan	nan	nan	1172.55518	1359.10071	-9.73276	1288.33301	1287.98047	139.69142	1308.37048	1170.54468	383.45816	1310.19177	1117.23560	404.27649	1237.04663	1060.77869	383.77762	1357.86182	1087.20239	312.83200	1386.60693	1086.06616	206.83652	1379.16406	1009.20496	217.83961	1451.32141	1065.52563	167.48230	1160.41309	1147.58936	-73.37270	1169.63513	1042.93323	-90.99013	1130.63831	1029.94189	-5.03711	1204.71692	932.29163	-77.78503	1257.97437	825.83258	-29.34322	1185.17517	805.15564	-54.59852	1260.38574	742.72705	-70.31622
9564	38.25200	1183.78809	1429.43030	163.54424	nan	nan	nan	1172.55017	1359.07202	-9.72555	1288.30212	1287.98413	139.72354	1308.33423	1170.58423	383.46951	1310.13770	1117.33057	404.26532	1237.02148	1060.79041	383.75137	1357.80994	1087.43262	312.80997	1386.51379	1086.45032	206.84349	1379.13269	1009.54510	217.73653	1451.24536	1066.02222	167.44516	1159.96936	1148.00574	-73.73022	1169.66650	1042.91992	-90.95509	1130.66748	1029.91418	-5.01581	1205.47485	931.49493	-77.15218	1258.06824	825.86737	-29.32592	1185.26050	805.14893	-54.55116	1260.50269	742.73700	-70.25095
9565	38.25600	1183.74414	1429.43164	163.55711	nan	nan	nan	1172.52771	1359.05896	-9.71443	1288.26636	1287.98962	139.74879	1308.30115	1170.61877	383.47491	1310.07483	1117.42847	404.25980	1236.99341	1060.80615	383.72833	1357.74817	1087.66650	312.79089	1386.42017	1086.84045	206.84268	1379.10986	1009.88159	217.64290	1451.16199	1066.51086	167.40291	1159.40710	1148.53149	-74.17973	1169.70374	1042.90027	-90.91791	1130.68933	1029.90112	-4.98303	1205.10632	931.97900	-77.47184	1258.16467	825.91553	-29.31187	1185.34082	805.15198	-54.50063	1260.61841	742.74963	-70.18925
